<?xml version="1.0" encoding="UTF-8"?>
<svg width="82px" height="50px" viewBox="0 0 82 50" version="1.1" xmlns="http://www.w3.org/2000/svg" xmlns:xlink="http://www.w3.org/1999/xlink">
    <g id="Page-1" stroke="none" stroke-width="1" fill="none" fill-rule="evenodd">
        <g class="icon" id="aquarius" transform="translate(-9.000000, 0.000000)" fill="#000000" fill-rule="nonzero">
            <g id="Group" transform="translate(9.000000, 0.000000)">
                <path d="M4.25,22 C3.4,22 2.54,21.69 1.87,21.06 C0.45,19.74 0.38,17.53 1.69,16.11 L12.4,4.6 C13.94,2.95 16,2.04 18.2,2.04 C20.41,2.04 22.47,2.95 24.01,4.6 L32.41,13.63 C32.66,13.9 32.92,13.96 33.09,13.96 C33.26,13.96 33.52,13.9 33.77,13.63 L42.17,4.6 C43.71,2.95 45.77,2.04 47.98,2.04 C47.98,2.04 47.98,2.04 47.98,2.04 C50.19,2.04 52.25,2.95 53.78,4.6 L62.18,13.63 C62.43,13.9 62.69,13.96 62.86,13.96 C63.03,13.96 63.29,13.9 63.54,13.63 L75.18,1.12 C76.5,-0.29 78.71,-0.38 80.13,0.94 C81.55,2.26 81.63,4.47 80.31,5.89 L68.67,18.4 C67.13,20.05 65.07,20.96 62.86,20.96 C62.86,20.96 62.86,20.96 62.86,20.96 C60.65,20.96 58.59,20.05 57.06,18.4 L48.66,9.37 C48.41,9.1 48.15,9.04 47.98,9.04 C47.81,9.04 47.55,9.1 47.3,9.37 L38.9,18.4 C37.36,20.05 35.3,20.96 33.09,20.96 C30.88,20.96 28.82,20.05 27.29,18.4 L18.89,9.37 C18.64,9.1 18.38,9.04 18.21,9.04 C18.04,9.04 17.78,9.1 17.53,9.37 L6.81,20.88 C6.12,21.62 5.19,22 4.25,22 Z" id="Path"></path>
                <path d="M4.25,50 C3.4,50 2.54,49.69 1.87,49.06 C0.45,47.74 0.38,45.53 1.69,44.11 L12.4,32.6 C13.94,30.95 16,30.04 18.2,30.04 C20.41,30.04 22.47,30.95 24.01,32.6 L32.41,41.63 C32.66,41.9 32.92,41.96 33.09,41.96 C33.26,41.96 33.52,41.9 33.77,41.63 L42.17,32.6 C43.71,30.95 45.77,30.04 47.98,30.04 C47.98,30.04 47.98,30.04 47.98,30.04 C50.19,30.04 52.25,30.95 53.78,32.6 L62.18,41.63 C62.43,41.9 62.69,41.96 62.86,41.96 C63.03,41.96 63.29,41.9 63.54,41.63 L75.18,29.12 C76.5,27.71 78.71,27.62 80.13,28.94 C81.55,30.26 81.63,32.47 80.31,33.89 L68.67,46.4 C67.13,48.05 65.07,48.96 62.86,48.96 C62.86,48.96 62.86,48.96 62.86,48.96 C60.65,48.96 58.59,48.05 57.06,46.4 L48.66,37.37 C48.41,37.1 48.15,37.04 47.98,37.04 C47.81,37.04 47.55,37.1 47.3,37.37 L38.9,46.4 C37.36,48.05 35.3,48.96 33.09,48.96 C30.88,48.96 28.82,48.05 27.29,46.4 L18.89,37.37 C18.64,37.1 18.38,37.04 18.21,37.04 C18.04,37.04 17.78,37.1 17.53,37.37 L6.81,48.88 C6.12,49.62 5.19,50 4.25,50 Z" id="Path"></path>
            </g>
        </g>
    </g>
</svg>