<?xml version="1.0" encoding="UTF-8"?>
<svg width="80px" height="66px" viewBox="0 0 80 66" version="1.1" xmlns="http://www.w3.org/2000/svg" xmlns:xlink="http://www.w3.org/1999/xlink">
    <title>Group</title>
    <g id="Page-1" stroke="none" stroke-width="1" fill="none" fill-rule="evenodd">
        <g class="icon" id="noun_Aries_2262196" transform="translate(-10.000000, 0.000000)" fill="#000000" fill-rule="nonzero">
            <g id="Group" transform="translate(10.000000, 0.000000)">
                <path d="M40,65.46 C38.07,65.46 36.5,63.89 36.5,61.96 L36.5,22.04 C36.5,14.04 30,7.54 22,7.54 C14,7.54 7.5,14.04 7.5,22.04 C7.5,26.86 9.89,31.36 13.9,34.07 C15.5,35.15 15.92,37.33 14.84,38.93 C13.76,40.53 11.58,40.95 9.98,39.87 C4.05,35.86 0.5,29.2 0.5,22.04 C0.5,10.19 10.15,0.54 22,0.54 C33.85,0.54 43.5,10.19 43.5,22.04 L43.5,61.95 C43.5,63.89 41.93,65.46 40,65.46 Z" id="Path"></path>
                <path d="M40,65.46 C38.07,65.46 36.5,63.89 36.5,61.96 L36.5,22.04 C36.5,10.19 46.14,0.54 58,0.54 C69.86,0.54 79.5,10.19 79.5,22.04 C79.5,29.19 75.96,35.86 70.02,39.87 C68.42,40.95 66.24,40.53 65.16,38.93 C64.08,37.33 64.5,35.15 66.1,34.07 C70.1,31.36 72.5,26.87 72.5,22.04 C72.5,14.04 66,7.54 58,7.54 C50,7.54 43.5,14.04 43.5,22.04 L43.5,61.95 C43.5,63.89 41.93,65.46 40,65.46 Z" id="Path"></path>
            </g>
        </g>
    </g>
</svg>