<?xml version="1.0" encoding="UTF-8"?>
<svg width="80px" height="66px" viewBox="0 0 80 66" version="1.1" xmlns="http://www.w3.org/2000/svg" xmlns:xlink="http://www.w3.org/1999/xlink">
    <title>Group</title>
    <g id="Page-1" stroke="none" stroke-width="1" fill="none" fill-rule="evenodd">
        <g class="icon" id="cancer" transform="translate(-10.000000, 0.000000)" fill="#000000" fill-rule="nonzero">
            <g id="Group" transform="translate(10.000000, 0.000000)">
                <g>
                    <path d="M63,36.5 C53.63,36.5 46,28.87 46,19.5 C46,10.13 53.63,2.5 63,2.5 C72.37,2.5 80,10.13 80,19.5 C80,28.87 72.37,36.5 63,36.5 Z M63,9.5 C57.49,9.5 53,13.99 53,19.5 C53,25.01 57.49,29.5 63,29.5 C68.51,29.5 73,25.01 73,19.5 C73,13.99 68.51,9.5 63,9.5 Z" id="Shape"></path>
                    <path d="M3.5,26.5 C2.54,26.5 1.59,26.11 0.9,25.34 C-0.39,23.9 -0.27,21.69 1.16,20.4 C1.48,20.11 9.16,13.25 20.85,7.6 C36.56,7.10542736e-15 52.03,-1.7 65.57,2.67 C67.41,3.26 68.42,5.24 67.83,7.08 C67.24,8.92 65.26,9.93 63.42,9.34 C51.5,5.49 38.26,7 24.07,13.82 C13.23,19.03 5.91,25.54 5.84,25.6 C5.17,26.2 4.33,26.5 3.5,26.5 Z" id="Path"></path>
                </g>
                <g transform="translate(0.000000, 29.000000)">
                    <path d="M17,34.5 C7.63,34.5 0,26.87 0,17.5 C0,8.13 7.63,0.5 17,0.5 C26.37,0.5 34,8.13 34,17.5 C34,26.87 26.37,34.5 17,34.5 Z M17,7.5 C11.49,7.5 7,11.99 7,17.5 C7,23.01 11.49,27.5 17,27.5 C22.51,27.5 27,23.01 27,17.5 C27,11.99 22.51,7.5 17,7.5 Z" id="Shape"></path>
                    <path d="M29.8,36.7 C24.48,36.7 19.33,35.91 14.43,34.33 C12.59,33.74 11.58,31.76 12.17,29.92 C12.76,28.08 14.74,27.07 16.58,27.66 C28.5,31.52 41.74,30 55.93,23.18 C66.77,17.97 74.08,11.46 74.16,11.4 C75.6,10.11 77.81,10.23 79.1,11.67 C80.39,13.11 80.27,15.32 78.84,16.61 C78.52,16.9 70.84,23.76 59.15,29.41 C49.12,34.25 39.19,36.7 29.8,36.7 Z" id="Path"></path>
                </g>
            </g>
        </g>
    </g>
</svg>