<?xml version="1.0" encoding="UTF-8"?>
<svg width="80px" height="62px" viewBox="0 0 80 62" version="1.1" xmlns="http://www.w3.org/2000/svg" xmlns:xlink="http://www.w3.org/1999/xlink">
    <title>Group</title>
    <g id="Page-1" stroke="none" stroke-width="1" fill="none" fill-rule="evenodd">
        <g class="icon" id="capricorn" transform="translate(-10.000000, 0.000000)" fill="#000000" fill-rule="nonzero">
            <g id="Group" transform="translate(10.000000, 0.000000)">
                <path d="M22,46 C20.07,46 18.5,44.43 18.5,42.5 L18.5,13.5 C18.5,10.47 16.03,8 13,8 C9.97,8 7.5,10.47 7.5,13.5 C7.5,14.6 7.82,15.67 8.44,16.57 C9.52,18.17 9.1,20.35 7.5,21.43 C5.9,22.51 3.72,22.09 2.64,20.49 C1.24,18.42 0.5,16 0.5,13.5 C0.5,6.61 6.11,1 13,1 C19.89,1 25.5,6.61 25.5,13.5 L25.5,42.5 C25.5,44.43 23.93,46 22,46 Z" id="Path"></path>
                <path d="M49.77,34.01 C49.31,34.01 48.84,33.92 48.38,33.72 C37.25,28.91 36.53,13.3 36.5,12.63 C36.5,12.59 36.5,12.54 36.5,12.5 C36.5,9.47 34.03,7 31,7 C27.97,7 25.5,9.47 25.5,12.5 C25.5,14.43 23.93,16 22,16 C20.07,16 18.5,14.43 18.5,12.5 C18.5,5.61 24.11,0 31,0 C37.86,0 43.45,5.56 43.5,12.41 C43.54,13.19 44.3,24.33 51.16,27.3 C52.93,28.07 53.75,30.13 52.98,31.9 C52.41,33.22 51.12,34.01 49.77,34.01 Z" id="Path"></path>
                <path d="M62.5,52 C53.13,52 45.5,44.37 45.5,35 C45.5,25.63 53.13,18 62.5,18 C71.87,18 79.5,25.63 79.5,35 C79.5,44.37 71.87,52 62.5,52 Z M62.5,25 C56.99,25 52.5,29.49 52.5,35 C52.5,40.51 56.99,45 62.5,45 C68.01,45 72.5,40.51 72.5,35 C72.5,29.49 68.01,25 62.5,25 Z" id="Shape"></path>
                <path d="M25,62 C23.2,62 21.67,60.62 21.52,58.8 C21.35,56.88 22.78,55.18 24.7,55.01 C24.83,55 30.07,54.51 35.66,52.5 C40.45,50.78 46.53,47.56 48.32,41.97 C48.91,40.13 50.88,39.12 52.72,39.71 C54.56,40.3 55.57,42.27 54.98,44.11 C49.98,59.68 26.3,61.9 25.3,61.99 C25.2,62 25.1,62 25,62 Z" id="Path"></path>
            </g>
        </g>
    </g>
</svg>