<?xml version="1.0" encoding="UTF-8"?>
<svg width="68px" height="78px" viewBox="0 0 68 78" version="1.1" xmlns="http://www.w3.org/2000/svg" xmlns:xlink="http://www.w3.org/1999/xlink">
    <title>Group</title>
    <g id="Page-1" stroke="none" stroke-width="1" fill="none" fill-rule="evenodd">
        <g class="icon" id="leo" transform="translate(-16.000000, 0.000000)" fill="#000000" fill-rule="nonzero">
            <g id="Group" transform="translate(16.000000, 0.000000)">
                <path d="M17,62.47 C7.63,62.47 0,54.84 0,45.47 C0,36.1 7.63,28.47 17,28.47 C26.37,28.47 34,36.1 34,45.47 C34,54.84 26.37,62.47 17,62.47 Z M17,35.47 C11.49,35.47 7,39.96 7,45.47 C7,50.98 11.49,55.47 17,55.47 C22.51,55.47 27,50.98 27,45.47 C27,39.96 22.51,35.47 17,35.47 Z" id="Shape"></path>
                <path d="M51.81,77.85 C48.5,77.85 45.02,76.49 41.4,73.78 C41.3,73.7 41.2,73.62 41.1,73.53 C31.56,64.55 38.61,52.55 44.83,41.96 C53.62,27 58.33,17.4 44.77,9.03 C40.63,6.89 37.29,6.6 34.57,8.15 C27.51,12.16 25.15,27.37 24.83,32.9 C24.72,34.83 23.08,36.3 21.14,36.2 C19.21,36.09 17.73,34.44 17.84,32.51 C17.85,32.27 18.18,26.66 19.84,20.23 C22.19,11.09 25.98,4.98 31.1,2.07 C36.01,-0.72 41.73,-0.45 48.11,2.88 C48.18,2.92 48.25,2.96 48.32,3 C68.56,15.4 58.33,32.81 50.86,45.51 C44.44,56.43 40.75,63.4 45.76,68.3 C48.83,70.56 51.45,71.32 53.54,70.53 C57.92,68.89 60.51,60.92 61.08,58.26 C61.48,56.37 63.33,55.15 65.22,55.56 C67.11,55.96 68.32,57.81 67.93,59.7 C67.63,61.13 64.76,73.78 56.02,77.08 C54.65,77.59 53.24,77.85 51.81,77.85 Z" id="Path"></path>
            </g>
        </g>
    </g>
</svg>