<?xml version="1.0" encoding="UTF-8"?>
<svg width="84px" height="74px" viewBox="0 0 84 74" version="1.1" xmlns="http://www.w3.org/2000/svg" xmlns:xlink="http://www.w3.org/1999/xlink">
    <title>Group</title>
    <g id="Page-1" stroke="none" stroke-width="1" fill="none" fill-rule="evenodd">
        <g class="icon" id="pisces" transform="translate(-8.000000, 0.000000)" fill="#000000" fill-rule="nonzero">
            <g id="Group" transform="translate(8.000000, 0.000000)">
                <g transform="translate(5.000000, 0.000000)" id="Path">
                    <path d="M4.25,74 C2.32,74 0.75,72.43 0.75,70.5 C0.75,68.57 2.32,67 4.25,67 C14.55,67 23.25,53.26 23.25,37 C23.25,20.74 14.55,7 4.25,7 C2.32,7 0.75,5.43 0.75,3.5 C0.75,1.57 2.32,0 4.25,0 C18.59,0 30.25,16.6 30.25,37 C30.25,57.4 18.59,74 4.25,74 Z"></path>
                    <path d="M69.75,74 C55.41,74 43.75,57.4 43.75,37 C43.75,16.6 55.41,0 69.75,0 C71.68,0 73.25,1.57 73.25,3.5 C73.25,5.43 71.68,7 69.75,7 C59.45,7 50.75,20.74 50.75,37 C50.75,53.26 59.45,67 69.75,67 C71.68,67 73.25,68.57 73.25,70.5 C73.25,72.43 71.68,74 69.75,74 Z"></path>
                </g>
                <path d="M80.25,40.5 L3.75,40.5 C1.82,40.5 0.25,38.93 0.25,37 C0.25,35.07 1.82,33.5 3.75,33.5 L80.25,33.5 C82.18,33.5 83.75,35.07 83.75,37 C83.75,38.93 82.18,40.5 80.25,40.5 Z" id="Path"></path>
            </g>
        </g>
    </g>
</svg>