<?xml version="1.0" encoding="UTF-8"?>
<svg width="84px" height="64px" viewBox="0 0 84 64" version="1.1" xmlns="http://www.w3.org/2000/svg" xmlns:xlink="http://www.w3.org/1999/xlink">
    <title>Group</title>
    <g id="Page-1" stroke="none" stroke-width="1" fill="none" fill-rule="evenodd">
        <g class="icon" id="scorpio" transform="translate(-8.000000, 0.000000)" fill="#000000" fill-rule="nonzero">
            <g id="Group" transform="translate(8.000000, 0.000000)">
                <path d="M22.25,53.69 C20.32,53.69 18.75,52.12 18.75,50.19 L18.75,13.19 C18.75,10.16 16.28,7.69 13.25,7.69 C10.22,7.69 7.75,10.16 7.75,13.19 C7.75,14.29 8.07,15.36 8.69,16.26 C9.77,17.86 9.35,20.04 7.75,21.12 C6.15,22.2 3.97,21.78 2.89,20.18 C1.49,18.11 0.75,15.69 0.75,13.19 C0.75,6.3 6.36,0.69 13.25,0.69 C20.14,0.69 25.75,6.3 25.75,13.19 L25.75,50.19 C25.75,52.12 24.18,53.69 22.25,53.69 Z" id="Path"></path>
                <path d="M40.25,53.69 C38.32,53.69 36.75,52.12 36.75,50.19 L36.75,13.19 C36.75,10.16 34.28,7.69 31.25,7.69 C28.22,7.69 25.75,10.16 25.75,13.19 C25.75,15.12 24.18,16.69 22.25,16.69 C20.32,16.69 18.75,15.12 18.75,13.19 C18.75,6.3 24.36,0.69 31.25,0.69 C38.14,0.69 43.75,6.3 43.75,13.19 L43.75,50.19 C43.75,52.12 42.18,53.69 40.25,53.69 Z" id="Path"></path>
                <path d="M68.75,63.31 C68.3,63.31 67.84,63.22 67.4,63.04 C66.1,62.5 65.25,61.22 65.25,59.81 L65.25,40.57 C65.25,39.24 66,38.03 67.19,37.43 C68.38,36.84 69.8,36.97 70.86,37.78 L81.86,46.14 C82.67,46.75 83.17,47.69 83.24,48.7 C83.31,49.71 82.93,50.7 82.21,51.42 L71.21,62.3 C70.54,62.96 69.65,63.31 68.75,63.31 Z M72.25,47.63 L72.25,51.43 L74.42,49.28 L72.25,47.63 Z" id="Shape"></path>
                <path d="M69.54,54.22 C67.17,54.22 64.27,53.7 61.61,51.81 C57.06,48.57 54.76,42.5 54.76,33.78 L54.76,13.19 C54.76,10.16 52.29,7.69 49.26,7.69 C46.23,7.69 43.76,10.16 43.76,13.19 C43.76,15.12 42.19,16.69 40.26,16.69 C38.33,16.69 36.76,15.12 36.76,13.19 C36.76,6.3 42.37,0.69 49.26,0.69 C56.15,0.69 61.76,6.3 61.76,13.19 L61.76,33.78 C61.76,40.02 63.11,44.28 65.68,46.11 C68.39,48.04 72.09,46.9 72.12,46.88 C73.95,46.25 75.94,47.22 76.57,49.05 C77.2,50.88 76.23,52.87 74.4,53.5 C74.24,53.55 72.24,54.22 69.54,54.22 Z" id="Path"></path>
            </g>
        </g>
    </g>
</svg>