<?xml version="1.0" encoding="UTF-8"?>
<svg width="86px" height="76px" viewBox="0 0 86 76" version="1.1" xmlns="http://www.w3.org/2000/svg" xmlns:xlink="http://www.w3.org/1999/xlink">
    <title>Group</title>
    <g id="Page-1" stroke="none" stroke-width="1" fill="none" fill-rule="evenodd">
        <g class="icon" id="taurus" transform="translate(-7.000000, 0.000000)" fill="#000000" fill-rule="nonzero">
            <g id="Group" transform="translate(7.000000, 0.000000)">
                <path d="M43.21,76 C27.5,76 14.71,63.21 14.71,47.5 C14.71,31.79 27.49,19 43.21,19 C58.93,19 71.71,31.79 71.71,47.5 C71.71,63.21 58.92,76 43.21,76 Z M43.21,26 C31.35,26 21.71,35.65 21.71,47.5 C21.71,59.35 31.35,69 43.21,69 C55.07,69 64.71,59.35 64.71,47.5 C64.71,35.65 55.06,26 43.21,26 Z" id="Shape"></path>
                <path d="M31.79,28.76 C29.86,28.76 28.29,27.19 28.29,25.26 C28.29,12.25 3.77,6.98 3.52,6.93 C1.62,6.55 0.4,4.71 0.78,2.81 C1.16,0.91 3.01,-0.31 4.9,0.07 C6.14,0.32 35.29,6.38 35.29,25.26 C35.29,27.2 33.72,28.76 31.79,28.76 Z" id="Path"></path>
                <path d="M54.21,28.76 C52.28,28.76 50.71,27.19 50.71,25.26 C50.71,6.37 79.86,0.31 81.1,0.07 C83,-0.31 84.84,0.92 85.22,2.81 C85.6,4.7 84.37,6.55 82.48,6.93 L82.48,6.93 C82.23,6.98 57.71,12.3 57.71,25.26 C57.71,27.2 56.14,28.76 54.21,28.76 Z" id="Path"></path>
            </g>
        </g>
    </g>
</svg>