<?xml version="1.0" encoding="UTF-8"?>
<svg width="80px" height="70px" viewBox="0 0 80 70" version="1.1" xmlns="http://www.w3.org/2000/svg" xmlns:xlink="http://www.w3.org/1999/xlink">
    <title>Group</title>
    <g id="Page-1" stroke="none" stroke-width="1" fill="none" fill-rule="evenodd">
        <g class="icon" id="virgo" transform="translate(-10.000000, 0.000000)" fill="#000000" fill-rule="nonzero">
            <g id="Group" transform="translate(10.000000, 0.000000)">
                <path d="M21.5,59 C19.57,59 18,57.43 18,55.5 L18,12.5 C18,9.47 15.53,7 12.5,7 C9.47,7 7,9.47 7,12.5 C7,13.6 7.32,14.67 7.94,15.57 C9.02,17.17 8.6,19.35 7,20.43 C5.4,21.51 3.22,21.09 2.14,19.49 C0.74,17.42 0,15 0,12.5 C0,5.61 5.61,0 12.5,0 C19.39,0 25,5.61 25,12.5 L25,55.5 C25,57.43 23.43,59 21.5,59 Z" id="Path"></path>
                <path d="M39.5,59 C37.57,59 36,57.43 36,55.5 L36,12.5 C36,9.47 33.53,7 30.5,7 C27.47,7 25,9.47 25,12.5 C25,14.43 23.43,16 21.5,16 C19.57,16 18,14.43 18,12.5 C18,5.61 23.61,0 30.5,0 C37.39,0 43,5.61 43,12.5 L43,55.5 C43,57.43 41.43,59 39.5,59 Z" id="Path"></path>
                <path d="M74.94,68.07 C63.22,68.07 55.13,58.13 54.77,57.69 C54.27,57.06 54,56.29 54,55.5 L54,12.5 C54,9.47 51.53,7 48.5,7 C45.47,7 43,9.47 43,12.5 C43,14.43 41.43,16 39.5,16 C37.57,16 36,14.43 36,12.5 C36,5.61 41.61,0 48.5,0 C55.39,0 61,5.61 61,12.5 L61,54.16 C63.04,56.29 68.96,61.66 76.18,61.01 C78.1,60.84 79.81,62.25 79.98,64.18 C80.15,66.1 78.74,67.81 76.81,67.98 C76.18,68.04 75.55,68.07 74.94,68.07 Z" id="Path"></path>
                <path d="M42.5,70 C41.14,70 39.84,69.2 39.28,67.87 C38.53,66.09 39.36,64.04 41.13,63.28 C49.65,59.66 71.44,47.12 70.01,32.85 C69.5,27.78 68.1,24.45 66.06,23.46 C63.38,22.16 59.44,24.61 59.4,24.63 C57.78,25.67 55.61,25.21 54.57,23.6 C53.52,21.98 53.97,19.83 55.57,18.77 C56.3,18.29 62.87,14.18 69.06,17.13 C73.53,19.26 76.19,24.31 76.98,32.15 C79.21,54.46 45.31,69.11 43.86,69.72 C43.42,69.91 42.96,70 42.5,70 Z" id="Path"></path>
            </g>
        </g>
    </g>
</svg>